<?xml version="1.0" encoding="utf-8"?>
<!-- Generator: Adobe Illustrator 26.1.0, SVG Export Plug-In . SVG Version: 6.00 Build 0)  -->
<svg version="1.1" id="图层_1" xmlns="http://www.w3.org/2000/svg" xmlns:xlink="http://www.w3.org/1999/xlink" x="0px" y="0px"
	 viewBox="0 0 64 64" style="enable-background:new 0 0 64 64;" xml:space="preserve">
<style type="text/css">
	.st0{fill:#DE2910;}
	.st1{fill:#FFD700;}
</style>
<desc>yellow hammer and sickle in top left on red canvas</desc>
<circle class="st0" cx="32.2" cy="32" r="30"/>
<g>
	<path id="path11728" class="st1" d="M32.2,15.4l-1.1,3.4h-3.5l2.9,2.1l-1.1,3.4l2.9-2.1l2.9,2.1L34,20.9l2.9-2.1h-3.5L32.2,15.4z
		 M32.2,17.2l0.7,2.1h2.3l-1.8,1.3l0.7,2.1l-1.8-1.3l-1.8,1.3l0.7-2.1l-1.8-1.3h2.3L32.2,17.2z"/>
	<g id="g2900" transform="matrix(0.98931879,0,0,0.98673811,3.8297658,3.7659398)">
		<path id="rect4165-6" class="st1" d="M20.8,29.6l2.4,2.5l2.3-2.3c3.5,3.8,7.2,7.4,10.7,11.2c0.5,0.5,1.4,0.5,1.9,0s0.5-1.4,0-1.9
			c-3.7-3.5-7.5-7.1-11.2-10.6l3.1-3.1l-4.3-0.6L20.8,29.6z"/>
		<path id="path4179-3" class="st1" d="M28.7,21.7c2,1.1,3.5,2.8,4.4,4.5s1.3,3.5,1.3,5c0,2.9-2.4,5.3-5.3,5.3c-1.6,0-3-0.7-4-1.8
			l-0.5,0.5c-0.1,0-0.2-0.1-0.3-0.1c-0.2,0-0.5,0.1-0.6,0.3c-0.4,0.1-0.7,0.3-0.8,0.7c-0.4,0.8-1.1,1.5-2,1.7l0,0
			c-0.4,0.1-0.8,0.4-1.1,0.8c-0.7,0.7-1,1.5-0.8,2.2c0,0.1,0,0.1,0,0.2c0,0.3,0.2,0.5,0.5,0.5c0.1,0,0.1,0,0.2,0
			c0.6,0.1,1.4-0.2,2.1-0.9c0.4-0.4,0.6-0.8,0.8-1.2c0.3-0.9,0.9-1.6,1.8-2l0,0c0.3-0.1,0.5-0.4,0.5-0.7c1.3,1.5,3.1,2.4,5.3,2.5
			c3.9,0.1,6.8-2.8,6.9-6.8c0.1-2.1-0.7-4.7-2.5-6.9C33,23.7,31,22.3,28.7,21.7L28.7,21.7z"/>
	</g>
</g>
</svg>
