<?xml version="1.0" encoding="utf-8"?>
<!-- Generator: Adobe Illustrator 26.1.0, SVG Export Plug-In . SVG Version: 6.00 Build 0)  -->
<svg version="1.1" id="图层_1" xmlns="http://www.w3.org/2000/svg" xmlns:xlink="http://www.w3.org/1999/xlink" x="0px" y="0px"
	 viewBox="0 0 64 64" style="enable-background:new 0 0 64 64;" xml:space="preserve">
<style type="text/css">
	.st0{fill:#00B3D6;}
	.st1{fill:#FFFFFF;}
</style>
<circle class="st0" cx="32" cy="32" r="30"/>
<g>
	<path class="st1" d="M18.8,27h-2.3c-1,0-1.6-0.7-1.6-1.6c0-0.7,0.6-1.6,1.6-1.6h8.2c1,0,1.6,0.7,1.6,1.6c0,0.7-0.4,1.6-1.6,1.6
		h-2.4v11.2c0,1.2-0.7,1.7-1.7,1.7s-1.7-0.6-1.7-1.7V27z"/>
	<path class="st1" d="M29.7,26.2c0-0.3-0.1-0.4-0.1-0.7c0-0.7,0.6-1.4,1.6-1.4s1.6,0.6,1.7,1.6l1.9,9.5l0,0l2.9-9.8
		c0.3-0.9,0.9-1.3,1.7-1.3c0.9,0,1.4,0.6,1.7,1.3l2.9,9.8l0,0l1.9-9.5c0.1-1,0.7-1.6,1.7-1.6c1,0,1.6,0.7,1.6,1.4
		c0,0.3,0,0.4-0.1,0.7l-2.9,12.2c-0.3,1-1,1.7-2.2,1.7c-1.2,0-1.9-0.7-2.2-1.6l-2.6-8.6l0,0l-2.6,8.6c-0.3,0.9-1.2,1.6-2.2,1.6
		c-1.3,0-2-0.9-2.2-1.7L29.7,26.2z"/>
</g>
</svg>
