<?xml version="1.0" encoding="utf-8"?>
<!-- Generator: Adobe Illustrator 25.0.0, SVG Export Plug-In . SVG Version: 6.00 Build 0)  -->
<svg version="1.1" id="图层_1" xmlns="http://www.w3.org/2000/svg" xmlns:xlink="http://www.w3.org/1999/xlink" x="0px" y="0px"
	 viewBox="0 0 36 36" style="enable-background:new 0 0 36 36;" xml:space="preserve">
<style type="text/css">
	.st0{fill:#EEEEEE;}
	.st1{fill:#0084C9;}
</style>
<path class="st0" d="M36,27c0,2.2-1.8,4-4,4H4c-2.2,0-4-1.8-4-4V9c0-2.2,1.8-4,4-4h28c2.2,0,4,1.8,4,4V27z"/>
<g>
	<path class="st1" d="M20.8,8.8L20.8,8.8c0.1,0,0.2,0.1,0.2,0.1c0.2,0.5,0.6,0.7,0.8,1.2c-0.1,0.1-0.2-0.1-0.4-0.1
		c-0.1,0-0.1,0.1-0.2,0.2c-0.1,0.1-0.1,0.1-0.2,0.1c-0.3,0.3-0.6,0.7-0.8,1.1c0.1,0.1,0.1,0.1,0.1,0.2c0.1,0.3-0.1,0.7,0.1,1
		c-0.7,0.2-0.9,0.8-1.6,1.1c0,0.6-0.9,0.4-1.2,0.7c-0.3,0.1-0.5,0.2-0.5,0.6c0,0.1,0.1,0.4,0,0.5c-0.1,0.1-0.2,0.1-0.2,0.2
		c0,0.1,0.3,0.2,0.4,0.3c0.2,0.1,0.4,0.2,0.5,0.5c0.6,0.3,0.7,1,1,1.5c0.2,0.2,0.4,0.5,0.5,0.8c0.2,0.2,0.4,0.5,0.5,0.8
		c0.2,0.4,0.2,1,0.1,1.5c0,0.2,0,0.5-0.1,0.7c0.1,0.1,0.2,0,0.2,0.1c0.1,0.4-0.1,0.7-0.2,1c-0.1,0.2-0.2,0.6-0.5,0.7
		c-0.4,0.2-0.8,0-1.3,0.1c-0.4,0-0.5,0.2-0.8,0.4c-0.2,0.2-0.5,0.2-0.8,0.4c-0.1,0.1-0.3,0.3-0.4,0.3c-0.2,0.1-0.4,0-0.5-0.1
		c-0.2-0.2-0.4-0.8-0.4-1.3c0-0.2,0.1-0.4,0.2-0.6c0.1-0.2,0.3-0.3,0.3-0.5s-0.2-0.4-0.2-0.7c0-0.2,0.1-0.5,0-0.7
		c-0.1-0.2-0.6-0.1-0.5-0.5c0.1-0.2,0.4-0.2,0.7-0.1c0.1,0.1,0.2,0.2,0.4,0.1c0-0.2,0-0.4-0.1-0.5c-0.1-0.1-0.1-0.1-0.2-0.2
		c-0.1-0.1-0.1-0.4-0.2-0.5c0-0.2,0.1-0.5,0-0.6c-0.1-0.2-0.8,0-1.1-0.1l-0.1-0.1l-0.1-0.1c-0.1-0.1-0.1-0.1-0.2-0.1
		c-0.1,0.1,0,0.2-0.1,0.2c-0.2,0.1-0.4-0.2-0.6-0.2c-0.2-0.1-0.6-0.3-0.4-0.7c0.1-0.2,0.3-0.3,0.5-0.5c0.2-0.1,0.4,0,0.5-0.2
		c-0.1-0.1-0.4,0-0.6-0.1c-0.1-0.5,0.6-0.8,0.5-1.3c-0.1-0.3-0.4-0.3-0.7-0.3c-0.3-0.1-0.6-0.1-0.7-0.4c0-0.1-0.1-0.1-0.1-0.1
		c0,0,0-0.1-0.1-0.1c0-0.1,0-0.1,0-0.1c0.1-0.4,0.6-0.7,0.9-0.8c0.1-0.1,0.2-0.1,0.3-0.2c0.3-0.2,0.7-0.3,1-0.5
		c0.1-0.1,0.3-0.2,0.4-0.3c0.1-0.1,0.1-0.1,0.2-0.2c0.1-0.1,0.1-0.1,0.2-0.2c0.2-0.4,0.2-0.8,0.8-1c0.2,0.3,0.5,0.6,0.8,0.7
		c0.1,0.1,0.2,0,0.4,0.1c0.1,0,0.2,0.1,0.2,0.1c0.2,0,0.4-0.1,0.4-0.2c0.1-0.3-0.4-0.4-0.3-0.7c0-0.2,0.3-0.2,0.6-0.2
		c0.2,0,0.4,0.1,0.5,0.1c0.2,0,0.4-0.2,0.5-0.4c0.1-0.1,0.2-0.4,0.4-0.4c0.1,0,0.2,0.1,0.3,0C20.8,9.7,20.5,8.9,20.8,8.8L20.8,8.8z"
		/>
	<path class="st1" d="M15.2,27.2c-0.2-0.4,0.3-0.6,0.6-0.6c0.2,0,0.5,0.1,0.5,0.2c0,0.1-0.1,0.2-0.1,0.2
		C16,27.1,15.6,27.1,15.2,27.2z"/>
	<path class="st1" d="M23.2,18.7c-0.1-0.1,0.1-0.2,0.1-0.2c0.1,0,0.1,0,0.1,0.1v0.1C23.4,18.7,23.3,18.7,23.2,18.7z"/>
</g>
</svg>
