<?xml version="1.0" encoding="utf-8"?>
<!-- Generator: Adobe Illustrator 26.1.0, SVG Export Plug-In . SVG Version: 6.00 Build 0)  -->
<svg version="1.1" id="图层_1" xmlns="http://www.w3.org/2000/svg" xmlns:xlink="http://www.w3.org/1999/xlink" x="0px" y="0px"
	 viewBox="0 0 36 36" style="enable-background:new 0 0 36 36;" xml:space="preserve">
<style type="text/css">
	.st0{fill:#00B3D6;}
	.st1{fill:#FFFFFF;}
</style>
<path class="st0" d="M36,27.6c0,2.2-1.8,4-4,4H4c-2.2,0-4-1.8-4-4v-18c0-2.2,1.8-4,4-4h28c2.2,0,4,1.8,4,4V27.6z"/>
<g>
	<path class="st1" d="M10.6,16.1H9.4c-0.6,0-0.9-0.4-0.9-0.9c0-0.4,0.3-0.9,0.9-0.9h4.6c0.6,0,0.9,0.4,0.9,0.9
		c0,0.4-0.2,0.9-0.9,0.9h-1.4v6.2c0,0.6-0.4,1-1,1c-0.6,0-1-0.3-1-1V16.1z"/>
	<path class="st1" d="M16.7,15.6c0-0.2-0.1-0.2-0.1-0.4c0-0.4,0.3-0.8,0.9-0.8c0.6,0,0.9,0.3,1,0.9l1,5.3l0,0l1.6-5.4
		c0.2-0.5,0.5-0.7,1-0.7s0.8,0.3,1,0.7l1.6,5.4l0,0l1-5.3c0.1-0.6,0.4-0.9,1-0.9c0.6,0,0.9,0.4,0.9,0.8c0,0.2,0,0.2-0.1,0.4
		l-1.6,6.8c-0.2,0.6-0.6,1-1.2,1s-1-0.4-1.2-0.9L22,17.7l0,0l-1.4,4.8c-0.2,0.5-0.6,0.9-1.2,0.9c-0.7,0-1.1-0.5-1.2-1L16.7,15.6z"/>
</g>
</svg>
