<?xml version="1.0" encoding="utf-8"?>
<!-- Generator: Adobe Illustrator 26.1.0, SVG Export Plug-In . SVG Version: 6.00 Build 0)  -->
<svg version="1.1" id="图层_1" xmlns="http://www.w3.org/2000/svg" xmlns:xlink="http://www.w3.org/1999/xlink" x="0px" y="0px"
	 viewBox="0 0 36 36" style="enable-background:new 0 0 36 36;" xml:space="preserve">
<style type="text/css">
	.st0{fill:#00B3D6;}
	.st1{fill:#FFFFFF;}
</style>
<path class="st0" d="M36,27.6c0,2.2-1.8,4-4,4H4c-2.2,0-4-1.8-4-4v-18c0-2.2,1.8-4,4-4h28c2.2,0,4,1.8,4,4V27.6z"/>
<g>
	<path class="st1" d="M5.2,13.6h10.7v0.9H5.2V13.6z M5.3,23h10.5v1H5.3V23z M5.3,18.2h10.4V20h-1.4v-0.9H6.6V20H5.3V18.2z M6.2,14.9
		h8.7v0.8H6.2V14.9z M6.5,21.8h8.3v0.8H6.5V21.8z M6.6,19.4h7.7v0.8H6.6V19.4z M6.6,16h7.9v1.8H6.6V16z M7.1,21.6
		c0-0.1-0.1-0.2-0.1-0.4c-0.1-0.2-0.1-0.3-0.2-0.5c0.2,0,0.4-0.1,0.6-0.1c0.1,0,0.2-0.1,0.4-0.2c0.2-0.1,0.4-0.2,0.6-0.3
		C8.6,20,8.9,19.9,9,19.7l1,0.3c-0.4,0.3-0.8,0.5-1.2,0.7c-0.4,0.2-0.8,0.3-1.1,0.4v0c-0.2,0.1-0.4,0.2-0.5,0.2
		C7.1,21.5,7.1,21.5,7.1,21.6z M7.1,21.6V21l0.6-0.3l5.8-0.1c0,0.1,0,0.2,0.1,0.4c0,0.1,0.1,0.3,0.1,0.4c-1.1,0-2,0-2.8,0.1
		c-0.7,0-1.3,0-1.8,0c-0.5,0-0.8,0-1.1,0c-0.2,0-0.4,0-0.6,0.1S7.1,21.6,7.1,21.6z M7.9,16.7v0.4h5.2v-0.4H7.9z M9.7,13h1.5v2.4H9.7
		V13z M9.7,21.1h1.5v2.5H9.7V21.1z M11.6,20.3l0.8-0.6c0.3,0.1,0.6,0.3,0.9,0.5c0.3,0.2,0.6,0.4,0.8,0.5s0.5,0.4,0.7,0.5L14,21.8
		c-0.2-0.2-0.4-0.3-0.7-0.5c-0.3-0.2-0.5-0.4-0.8-0.6S11.9,20.4,11.6,20.3z"/>
	<path class="st1" d="M19.5,17.3l0.8-1c0.2,0.1,0.4,0.2,0.6,0.3c0.2,0.1,0.4,0.3,0.6,0.4c0.2,0.1,0.4,0.3,0.5,0.4l-0.8,1.1
		c-0.1-0.1-0.3-0.3-0.5-0.4s-0.4-0.3-0.6-0.4C19.9,17.5,19.7,17.4,19.5,17.3z M19.8,14.1l0.8-1c0.2,0.1,0.4,0.2,0.6,0.4
		c0.2,0.1,0.4,0.3,0.6,0.4c0.2,0.1,0.4,0.3,0.5,0.4l-0.9,1.1c-0.1-0.1-0.3-0.3-0.5-0.4c-0.2-0.2-0.4-0.3-0.6-0.5
		C20.2,14.4,20,14.2,19.8,14.1z M19.8,23.4c0.2-0.3,0.3-0.7,0.5-1.1c0.2-0.4,0.4-0.9,0.5-1.3c0.2-0.5,0.3-1,0.5-1.4l1.1,0.7
		c-0.1,0.4-0.3,0.9-0.4,1.3c-0.2,0.4-0.3,0.9-0.5,1.3c-0.2,0.4-0.3,0.8-0.5,1.2L19.8,23.4z M22.3,17.5l0.7,0.2
		c0,0.3-0.1,0.6-0.2,0.9s-0.2,0.5-0.3,0.7c-0.1-0.1-0.2-0.1-0.3-0.2s-0.2-0.2-0.3-0.2c0.1-0.2,0.2-0.4,0.3-0.6
		C22.2,17.9,22.3,17.7,22.3,17.5z M22.3,15.5c0-0.1-0.1-0.1-0.1-0.3c-0.1-0.1-0.1-0.2-0.2-0.3c0.1,0,0.1-0.1,0.2-0.1
		c0.1-0.1,0.1-0.1,0.2-0.2c0,0,0.1-0.2,0.2-0.3s0.2-0.4,0.3-0.6c0.1-0.2,0.2-0.4,0.2-0.6l0.8,0.3c-0.1,0.3-0.3,0.6-0.5,1
		S23,15,22.7,15.2v0c-0.1,0.1-0.3,0.1-0.3,0.2C22.3,15.4,22.3,15.5,22.3,15.5z M22.4,17.1c0-0.1-0.1-0.2-0.1-0.3
		c-0.1-0.1-0.1-0.2-0.2-0.3c0.1,0,0.2-0.1,0.3-0.1s0.2-0.2,0.3-0.3c0.1-0.1,0.2-0.2,0.4-0.4s0.3-0.5,0.5-0.7
		c0.2-0.3,0.3-0.6,0.5-0.9l0.7,0.3c-0.2,0.4-0.5,0.8-0.9,1.2c-0.3,0.4-0.7,0.8-1,1.1v0c-0.2,0.1-0.3,0.1-0.4,0.2
		S22.4,17.1,22.4,17.1z M22.3,15.5l0-0.6l0.5-0.2l1.3-0.1c0,0.1,0,0.2-0.1,0.4c0,0.1,0,0.2,0,0.3c-0.4,0-0.7,0-0.9,0.1
		c-0.2,0-0.4,0-0.5,0.1C22.4,15.5,22.4,15.5,22.3,15.5z M22.4,17.1l-0.1-0.6l0.4-0.2l1.8-0.2c0,0.1,0,0.2,0.1,0.3
		c0,0.1,0.1,0.2,0.1,0.3c-0.6,0.1-1,0.1-1.4,0.2C23,17,22.8,17,22.7,17C22.5,17.1,22.4,17.1,22.4,17.1z M23.3,20.5h1.3
		c-0.1,0.4-0.2,0.7-0.3,1.1c-0.1,0.4-0.2,0.7-0.3,1h-1.3c0.1-0.3,0.2-0.6,0.3-1S23.3,20.8,23.3,20.5z M23.7,20.5h4.8v-0.4H23v-0.8
		h6.9v2h-6.1V20.5z M23.1,17.6l0.6-0.2c0.1,0.2,0.1,0.4,0.2,0.7c0,0.3,0.1,0.5,0.1,0.6L23.4,19c0-0.2,0-0.4-0.1-0.7
		S23.2,17.8,23.1,17.6z M23.6,21.6h5.9v0.9h-5.9V21.6z M24,15.8l0.6-0.2c0.1,0.2,0.2,0.4,0.3,0.7c0.1,0.2,0.2,0.4,0.2,0.6l-0.6,0.3
		c0-0.2-0.1-0.4-0.2-0.6C24.2,16.3,24.1,16,24,15.8z M24.1,17.4l0.6-0.2c0.1,0.2,0.2,0.4,0.2,0.6c0.1,0.2,0.1,0.4,0.1,0.6l-0.6,0.3
		c0-0.2-0.1-0.4-0.1-0.6C24.2,17.9,24.2,17.7,24.1,17.4z M24.9,14.2h2.9v0.7h-2.9V14.2z M25.2,17.1h2.3v1.8h-2.3V17.1z M25.3,15.2
		h2.3v0.7h-2.3V15.2z M25.3,16.2h2.3v0.7h-2.3V16.2z M25.7,13.3l0.9-0.2c0.1,0.1,0.2,0.3,0.2,0.5c0.1,0.2,0.2,0.3,0.2,0.5l-1,0.2
		c0-0.1-0.1-0.3-0.2-0.5S25.8,13.5,25.7,13.3z M26.1,17.8v0.5h0.6v-0.5H26.1z M29.1,21.6h1.3c0,0.3,0,0.4-0.1,0.5
		c-0.1,0.5-0.2,0.9-0.3,1.2c-0.1,0.3-0.3,0.5-0.4,0.6c-0.2,0.1-0.3,0.2-0.5,0.2c-0.2,0-0.4,0.1-0.6,0.1c-0.2,0-0.5,0-0.8,0
		c-0.3,0-0.7,0-1.1,0c0-0.2,0-0.3-0.1-0.5c-0.1-0.2-0.2-0.4-0.3-0.5c0.4,0,0.7,0.1,1.1,0.1c0.3,0,0.6,0,0.8,0c0.1,0,0.2,0,0.3,0
		c0.1,0,0.2,0,0.2-0.1c0.1-0.1,0.2-0.2,0.3-0.4s0.2-0.5,0.2-0.9L29.1,21.6z M28,17.4l0.7,0.2c0,0.3-0.1,0.6-0.2,0.9
		s-0.2,0.5-0.3,0.8c-0.1-0.1-0.2-0.1-0.3-0.2s-0.2-0.2-0.3-0.2c0.1-0.2,0.2-0.4,0.3-0.6C27.9,17.9,28,17.7,28,17.4z M28,15.5
		c0-0.1-0.1-0.1-0.1-0.3c-0.1-0.1-0.1-0.2-0.2-0.3c0.1,0,0.1,0,0.2-0.1c0.1-0.1,0.1-0.1,0.2-0.2c0-0.1,0.1-0.2,0.2-0.3
		c0.1-0.2,0.2-0.3,0.3-0.6c0.1-0.2,0.2-0.4,0.2-0.6l0.8,0.3c-0.1,0.3-0.3,0.6-0.5,1s-0.4,0.6-0.7,0.9v0c-0.1,0.1-0.3,0.1-0.3,0.2
		S28,15.5,28,15.5z M28.1,17.1c0-0.1-0.1-0.1-0.1-0.3s-0.1-0.2-0.2-0.3c0.1,0,0.2-0.1,0.3-0.1c0.1-0.1,0.2-0.2,0.3-0.3
		c0.1-0.1,0.2-0.2,0.4-0.4s0.3-0.5,0.5-0.7c0.2-0.3,0.3-0.6,0.5-0.9l0.8,0.3c-0.2,0.4-0.5,0.8-0.9,1.2s-0.7,0.8-1,1.1v0
		c-0.2,0.1-0.3,0.1-0.4,0.2C28.1,17.1,28.1,17.1,28.1,17.1z M28,15.5l0-0.6l0.5-0.2l1.3-0.1c0,0.1,0,0.2-0.1,0.4s0,0.2,0,0.3
		c-0.4,0-0.7,0-0.9,0.1s-0.4,0-0.5,0.1C28.1,15.5,28.1,15.5,28,15.5z M28.1,17.1L28,16.5l0.4-0.2l1.8-0.2c0,0.1,0,0.2,0.1,0.3
		s0.1,0.2,0.1,0.3c-0.6,0.1-1,0.2-1.4,0.2s-0.5,0.1-0.7,0.1C28.2,17.1,28.1,17.1,28.1,17.1z M28.8,17.6l0.6-0.2
		c0.1,0.2,0.1,0.5,0.2,0.8c0.1,0.3,0.1,0.5,0.1,0.7L29,19.1c0-0.2,0-0.4-0.1-0.7C28.9,18.1,28.9,17.9,28.8,17.6z M29.7,15.8l0.6-0.2
		c0.1,0.2,0.2,0.4,0.3,0.7c0.1,0.2,0.2,0.5,0.2,0.6l-0.6,0.3c0-0.2-0.1-0.4-0.2-0.6C29.9,16.3,29.8,16,29.7,15.8z M29.7,17.5
		l0.6-0.2c0.1,0.2,0.2,0.5,0.3,0.8s0.1,0.5,0.2,0.7L30.2,19c0-0.2-0.1-0.4-0.1-0.7C29.9,18,29.9,17.7,29.7,17.5z"/>
</g>
</svg>
