<?xml version="1.0" encoding="utf-8"?>
<!-- Generator: Adobe Illustrator 26.1.0, SVG Export Plug-In . SVG Version: 6.00 Build 0)  -->
<svg version="1.1" id="图层_1" xmlns="http://www.w3.org/2000/svg" xmlns:xlink="http://www.w3.org/1999/xlink" x="0px" y="0px"
	 viewBox="0 0 36 36" style="enable-background:new 0 0 36 36;" xml:space="preserve">
<style type="text/css">
	.st0{fill:#00B3D6;}
	.st1{fill:#FFFFFF;}
</style>
<path class="st0" d="M36,27.6c0,2.2-1.8,4-4,4H4c-2.2,0-4-1.8-4-4v-18c0-2.2,1.8-4,4-4h28c2.2,0,4,1.8,4,4V27.6z"/>
<g>
	<path class="st1" d="M5.8,18.2c0-0.1-0.1-0.2-0.1-0.4c-0.1-0.2-0.1-0.3-0.2-0.5S5.4,17,5.3,16.8c0.2,0,0.3-0.1,0.5-0.2
		c0.2-0.1,0.3-0.3,0.5-0.5c0.1-0.1,0.3-0.3,0.5-0.5c0.2-0.2,0.4-0.5,0.7-0.8c0.2-0.3,0.5-0.6,0.7-1s0.5-0.7,0.7-1.1l1.5,0.6
		C10,14,9.6,14.5,9.2,15c-0.4,0.5-0.8,0.9-1.3,1.4c-0.4,0.4-0.9,0.8-1.3,1.1v0c-0.2,0.1-0.3,0.2-0.4,0.2C6.1,17.8,6,17.9,5.9,18
		S5.8,18.2,5.8,18.2z M5.8,18.2l0-1.1l1-0.5l7.4-0.3c0,0.2,0,0.4,0,0.7c0,0.3,0.1,0.5,0.1,0.6c-1.2,0.1-2.1,0.1-3,0.1
		c-0.8,0-1.6,0.1-2.1,0.1c-0.6,0-1.1,0.1-1.5,0.1C7.3,18,7,18,6.7,18c-0.2,0-0.4,0.1-0.6,0.1S5.9,18.2,5.8,18.2z M6.2,19h8.1v5.3
		h-1.5v-3.9H7.6v3.9H6.2V19z M6.9,22.3h6.6v1.4H6.9V22.3z M11.2,14.9l1.1-0.8c0.4,0.3,0.8,0.7,1.2,1.2c0.4,0.4,0.8,0.8,1.2,1.3
		c0.4,0.4,0.6,0.8,0.9,1.1l-1.2,0.9c-0.2-0.3-0.5-0.7-0.8-1.1c-0.3-0.4-0.7-0.9-1.1-1.3S11.6,15.3,11.2,14.9z"/>
	<path class="st1" d="M19.3,17.1l1.2-0.6c0.2,0.2,0.3,0.4,0.5,0.7c0.2,0.2,0.3,0.5,0.5,0.7c0.1,0.2,0.3,0.4,0.4,0.6l-1.3,0.7
		c-0.1-0.2-0.2-0.4-0.3-0.6c-0.1-0.2-0.3-0.5-0.5-0.7C19.6,17.6,19.4,17.4,19.3,17.1z M19.5,23.2c0.2-0.3,0.3-0.7,0.5-1.1
		c0.2-0.4,0.3-0.8,0.5-1.3s0.3-0.9,0.5-1.4l1.2,0.8c-0.1,0.4-0.3,0.8-0.4,1.3c-0.2,0.4-0.3,0.9-0.5,1.3S21,23.6,20.9,24L19.5,23.2z
		 M19.6,13.8l1.2-0.7c0.2,0.2,0.3,0.4,0.5,0.7c0.2,0.2,0.4,0.5,0.5,0.7c0.2,0.2,0.3,0.4,0.4,0.6L21,15.9c-0.1-0.2-0.2-0.4-0.4-0.6
		c-0.2-0.2-0.3-0.5-0.5-0.8C20,14.3,19.8,14,19.6,13.8z M23.5,15.4l1.2,0.3c-0.2,0.4-0.4,0.8-0.7,1.1c-0.3,0.4-0.6,0.7-0.9,1
		c-0.1-0.1-0.2-0.2-0.3-0.2c-0.1-0.1-0.2-0.2-0.4-0.3s-0.2-0.2-0.3-0.2c0.3-0.2,0.5-0.5,0.8-0.8S23.3,15.7,23.5,15.4z M22.8,14h7.7
		v1.2h-7.7V14z M23.5,19.7h1.4c-0.1,0.5-0.2,0.9-0.3,1.4c-0.1,0.5-0.2,0.9-0.3,1.2h-1.4c0.1-0.4,0.2-0.8,0.4-1.3
		C23.3,20.6,23.5,20.1,23.5,19.7z M24,19.7h4.4v-0.5H23v-1.1h6.8v2.7H24V19.7z M23.8,21.3h5.4v1.1h-5.4V21.3z M24.7,14.7H26v3.2
		h-1.3V14.7z M25.7,13.2l1.4-0.3c0.1,0.2,0.3,0.5,0.4,0.8s0.2,0.6,0.2,0.8l-1.4,0.3c0-0.2-0.1-0.5-0.2-0.8
		C25.9,13.7,25.8,13.4,25.7,13.2z M28.8,21.3h1.4c0,0.3-0.1,0.5-0.1,0.6c-0.1,0.6-0.2,1.1-0.4,1.4c-0.1,0.3-0.3,0.6-0.4,0.7
		c-0.1,0.1-0.3,0.2-0.4,0.2s-0.3,0.1-0.5,0.1c-0.2,0-0.4,0-0.6,0c-0.3,0-0.6,0-0.9,0c0-0.2,0-0.4-0.1-0.6c-0.1-0.2-0.1-0.4-0.2-0.6
		c0.2,0,0.5,0,0.7,0s0.4,0,0.5,0c0.1,0,0.2,0,0.2,0c0.1,0,0.1,0,0.2-0.1c0.1-0.1,0.2-0.3,0.3-0.5c0.1-0.3,0.2-0.7,0.3-1.2L28.8,21.3
		z M26.8,14.7h1.3v3.2h-1.3V14.7z M28.3,15.9l1-0.5c0.2,0.2,0.4,0.4,0.5,0.6c0.2,0.2,0.4,0.4,0.5,0.6c0.2,0.2,0.3,0.4,0.3,0.6
		l-1.1,0.6c-0.1-0.2-0.2-0.4-0.3-0.6c-0.1-0.2-0.3-0.4-0.5-0.7S28.4,16.1,28.3,15.9z"/>
</g>
</svg>
