<?xml version="1.0" encoding="utf-8"?>
<!-- Generator: Adobe Illustrator 25.0.0, SVG Export Plug-In . SVG Version: 6.00 Build 0)  -->
<svg version="1.1" id="图层_1" xmlns="http://www.w3.org/2000/svg" xmlns:xlink="http://www.w3.org/1999/xlink" x="0px" y="0px"
	 viewBox="0 0 64 64" style="enable-background:new 0 0 64 64;" xml:space="preserve">
<style type="text/css">
	.st0{fill:#FFFFFF;}
	.st1{fill:#003478;}
	.st2{fill:#0084C9;}
</style>
<circle class="st0" cx="32" cy="32" r="30"/>
<path class="st1" d="M42.3,38.9c0.1-0.2,0.2-0.4,0.3-0.5C42.5,38.5,42.4,38.7,42.3,38.9"/>
<g transform="translate(-.057607 .028803)">
	<path class="st2" d="M38,15.1h0.1c0.1,0,0.2,0.1,0.3,0.1c0.3,0.9,1.1,1.3,1.4,2.2c-0.2,0.1-0.3-0.1-0.7-0.1c-0.2,0-0.2,0.2-0.3,0.4
		c-0.1,0.1-0.2,0.1-0.3,0.2c-0.5,0.5-1.1,1.3-1.4,2c0.1,0.1,0.1,0.2,0.2,0.4c0.2,0.6-0.1,1.3,0.1,1.9c-1.2,0.4-1.7,1.5-2.9,2
		c0,1.1-1.7,0.7-2.1,1.3c-0.5,0.1-0.9,0.4-1,1.1c0,0.2,0.1,0.7,0,0.9c-0.1,0.1-0.3,0.1-0.3,0.3c0,0.2,0.5,0.4,0.7,0.5
		c0.4,0.2,0.8,0.4,1,0.9c1.1,0.6,1.2,1.8,1.8,2.8c0.3,0.4,0.7,0.9,0.9,1.4c0.3,0.4,0.7,1,0.9,1.4c0.3,0.8,0.3,1.8,0.2,2.8
		c0,0.4,0,0.9-0.1,1.3c0.1,0.1,0.3,0,0.3,0.1c0.1,0.7-0.1,1.2-0.3,1.8c-0.2,0.4-0.4,1.1-0.9,1.3c-0.7,0.3-1.5,0-2.4,0.1
		c-0.7,0-1,0.3-1.4,0.7c-0.4,0.3-1,0.4-1.4,0.8c-0.2,0.1-0.5,0.5-0.8,0.5c-0.3,0.1-0.8,0-0.9-0.2c-0.4-0.4-0.7-1.4-0.7-2.4
		c0-0.4,0.2-0.8,0.3-1.1c0.2-0.3,0.5-0.5,0.5-0.9c0-0.4-0.3-0.8-0.4-1.3c0-0.3,0.1-1,0-1.3c-0.1-0.4-1.1-0.2-0.9-0.9
		c0.1-0.3,0.8-0.3,1.2-0.2c0.2,0.1,0.4,0.3,0.7,0.2c0-0.3,0-0.7-0.2-0.9c-0.1-0.1-0.2-0.2-0.3-0.3c-0.1-0.2-0.2-0.7-0.3-1
		c0-0.3,0.1-0.9,0-1.1c-0.2-0.3-1.5,0-2-0.2l-0.1-0.1l-0.1-0.1c-0.1-0.1-0.2-0.2-0.3-0.2c-0.1,0.1,0,0.3-0.2,0.4
		c-0.3,0.1-0.8-0.3-1-0.4c-0.3-0.2-1-0.6-0.8-1.2c0.2-0.4,0.5-0.5,0.9-1c0.3-0.1,0.8,0,0.9-0.3c-0.2-0.2-0.8,0-1-0.2
		c-0.1-1,1-1.4,0.9-2.4c-0.1-0.6-0.8-0.6-1.3-0.6c-0.5-0.1-1-0.2-1.3-0.7c0-0.1-0.1-0.1-0.1-0.2c0,0,0-0.1-0.1-0.2
		c0-0.1,0-0.1,0-0.2c0.1-0.8,1.1-1.2,1.6-1.5c0.2-0.1,0.3-0.2,0.6-0.3c0.5-0.3,1.2-0.6,1.9-0.9c0.2-0.1,0.5-0.3,0.8-0.6
		c0.1-0.1,0.2-0.2,0.3-0.3c0.1-0.1,0.2-0.2,0.3-0.3c0.4-0.7,0.3-1.5,1.4-1.8c0.4,0.5,0.9,1,1.5,1.2c0.2,0.1,0.4,0,0.8,0.1
		c0.1,0,0.3,0.1,0.4,0.1c0.3,0,0.7-0.2,0.7-0.4c0.1-0.5-0.7-0.8-0.5-1.3c0-0.3,0.5-0.4,1-0.4c0.3,0,0.7,0.1,0.9,0.1
		c0.4,0,0.8-0.4,1-0.8c0.1-0.2,0.3-0.7,0.7-0.7c0.1,0,0.3,0.1,0.5,0C37.9,16.7,37.4,15.3,38,15.1L38,15.1z"/>
	<path class="st2" d="M27.8,48.5c-0.4-0.7,0.6-1.1,1.1-1.1c0.3,0,0.9,0.1,0.9,0.3c0,0.1-0.1,0.3-0.2,0.4
		C29.2,48.4,28.5,48.4,27.8,48.5z"/>
	<path class="st2" d="M42.3,33c-0.1-0.2,0.1-0.3,0.2-0.3s0.2,0,0.2,0.1v0.1C42.7,33,42.5,33,42.3,33z"/>
	<g transform="matrix(.00832568 0 0 .00832568 588.00247 305.5115)">
		<path class="st2" d="M644.3,333C644.3,333,644.3,333,644.3,333C644.3,333,644.3,333,644.3,333L644.3,333L644.3,333L644.3,333
			C644.3,332.9,644.3,333,644.3,333C644.3,333,644.3,333,644.3,333C644.3,333,644.3,333,644.3,333C644.3,333,644.3,333,644.3,333
			L644.3,333z"/>
		<path class="st2" d="M644.3,332.9C644.3,333,644.3,333,644.3,332.9C644.3,333,644.3,333,644.3,332.9L644.3,332.9L644.3,332.9
			L644.3,332.9L644.3,332.9C644.3,333,644.3,333,644.3,332.9C644.3,333,644.3,333,644.3,332.9C644.3,333,644.3,333,644.3,332.9
			C644.3,333,644.3,333,644.3,332.9z"/>
	</g>
</g>
</svg>
