<?xml version="1.0" encoding="utf-8"?>
<!-- Generator: Adobe Illustrator 25.0.0, SVG Export Plug-In . SVG Version: 6.00 Build 0)  -->
<svg version="1.1" id="图层_1" xmlns="http://www.w3.org/2000/svg" xmlns:xlink="http://www.w3.org/1999/xlink" x="0px" y="0px"
	 viewBox="0 0 36 36" style="enable-background:new 0 0 36 36;" xml:space="preserve">
<style type="text/css">
	.st0{fill:#DE2910;}
	.st1{fill:#FFD700;}
</style>
<path class="st0" d="M36,27c0,2.2-1.8,4-4,4H4c-2.2,0-4-1.8-4-4V9c0-2.2,1.8-4,4-4h28c2.2,0,4,1.8,4,4V27z"/>
<g>
	<path id="path11728" class="st1" d="M7.8,7.9L7.2,9.3H5.8L7,10.2l-0.4,1.4l1.2-0.9L9,11.6l-0.4-1.4l1.2-0.9H8.2L7.8,7.9z M7.8,8.7
		L8,9.5h1l-0.8,0.7l0.3,0.9l-0.8-0.6L7,11.1l0.3-0.9L6.5,9.5h1L7.8,8.7z"/>
	<g id="g2900" transform="matrix(0.98931879,0,0,0.98673811,3.8297658,3.7659398)">
		<path id="rect4165-6" class="st1" d="M0.6,11.9L1.7,13l1-1.1c1.5,1.7,3.1,3.2,4.6,4.8c0.2,0.2,0.6,0.2,0.8,0
			c0.2-0.2,0.2-0.6,0-0.8c-1.6-1.5-3.2-3.1-4.8-4.5l1.3-1.3L2.7,9.8L0.6,11.9z"/>
		<path id="path4179-3" class="st1" d="M4,8.5c0.9,0.4,1.5,1.2,1.9,1.9c0.4,0.8,0.6,1.5,0.6,2.1c0,1.2-1,2.3-2.3,2.3
			c-0.7,0-1.3-0.3-1.6-0.8l-0.2,0.2H2.1c-0.1,0-0.2,0-0.2,0.1c-0.2,0-0.3,0.1-0.3,0.3c-0.2,0.3-0.4,0.7-0.9,0.8l0,0
			c-0.2,0.1-0.3,0.2-0.4,0.3c-0.3,0.3-0.4,0.7-0.3,0.9c0,0,0,0,0,0.1S0,17,0.1,17h0.1c0.2,0.1,0.7-0.1,0.9-0.3
			c0.1-0.1,0.2-0.3,0.3-0.6c0.1-0.3,0.4-0.7,0.8-0.9l0,0c0.1-0.1,0.2-0.1,0.2-0.3c0.5,0.7,1.3,1,2.2,1.1c1.6,0,2.9-1.2,3-3
			c0-0.9-0.3-2-1.1-3C5.9,9.3,5,8.7,4,8.5L4,8.5z"/>
	</g>
</g>
</svg>
